<svg xmlns:dc="http://purl.org/dc/elements/1.1/" xmlns:cc="http://creativecommons.org/ns#" xmlns:rdf="http://www.w3.org/1999/02/22-rdf-syntax-ns#" xmlns:svg="http://www.w3.org/2000/svg" xmlns="http://www.w3.org/2000/svg" xmlns:sodipodi="http://sodipodi.sourceforge.net/DTD/sodipodi-0.dtd" xmlns:inkscape="http://www.inkscape.org/namespaces/inkscape" fill="#000000" version="1.1" x="0px" y="0px" viewBox="0 0 100 100"><path style="font-size:medium;font-style:normal;font-variant:normal;font-weight:normal;font-stretch:normal;text-indent:0;text-align:start;text-decoration:none;line-height:normal;letter-spacing:normal;word-spacing:normal;text-transform:none;direction:ltr;block-progression:tb;writing-mode:lr-tb;text-anchor:start;baseline-shift:baseline;opacity:1;color:#000000;fill:#000000;fill-opacity:1;stroke:none;stroke-width:3.99999976000000010;marker:none;visibility:visible;display:inline;overflow:visible;enable-background:accumulate;font-family:Sans;-inkscape-font-specification:Sans" d="M 10 18 L 10 28.375 A 2.0041461 2.0041461 0 0 1 10.125 28.75 C 10.703278 31.750604 13.295071 34 16.5 34 C 20.277167 34 23 31.635595 23 28 A 2.0001999 2.0001999 0 0 1 24.90625 26.03125 A 2.0001999 2.0001999 0 0 1 27 28 C 27 31.635595 29.722833 34 33.5 34 C 37.277167 34 40 31.635595 40 28 A 2.0001999 2.0001999 0 0 1 44 28 C 44 31.698736 46.558072 34 50 34 C 53.441928 34 56 31.698736 56 28 A 2.0001999 2.0001999 0 0 1 60 28 C 60 31.635595 62.722833 34 66.5 34 C 70.277167 34 73 31.635595 73 28 A 2.0001999 2.0001999 0 0 1 77 28 C 77 31.635595 79.722833 34 83.5 34 C 86.704929 34 89.296723 31.750604 89.875 28.75 A 2.0041461 2.0041461 0 0 1 90 28.34375 L 90 18 L 10 18 z M 25 33.59375 C 23.079129 36.230687 20.01762 38 16.5 38 C 14.047095 38 11.792828 37.136482 10 35.71875 L 10 82 L 24.21875 82 L 17.09375 60.625 A 2.0001999 2.0001999 0 0 1 18.125 58.1875 C 23.152176 55.776637 28.909599 52.717738 33.46875 48.71875 C 38.027901 44.719762 41.347544 39.892435 42 33.78125 A 2.0119273 2.0119273 0 0 1 42 33.6875 C 41.99149 33.67552 41.97725 33.66827 41.96875 33.65625 C 40.04334 36.260383 36.992649 38 33.5 38 C 29.98238 38 26.920871 36.230687 25 33.59375 z M 75 33.59375 C 73.079129 36.230687 70.01762 38 66.5 38 C 63.007351 38 59.95666 36.260383 58.03125 33.65625 C 58.018 33.67507 58.01336 33.70002 58 33.71875 A 2.0119273 2.0119273 0 0 1 58 33.78125 C 58.664916 39.87785 62.004136 44.683262 66.5625 48.6875 C 71.120864 52.691738 76.856297 55.7807 81.875 58.1875 A 2.0001999 2.0001999 0 0 1 82.90625 60.625 L 75.78125 82 L 90 82 L 90 35.71875 C 88.207172 37.136482 85.952905 38 83.5 38 C 79.98238 38 76.920871 36.230687 75 33.59375 z "></path></svg>