<svg xmlns="http://www.w3.org/2000/svg" xmlns:xlink="http://www.w3.org/1999/xlink" version="1.1" x="0px" y="0px" viewBox="0 0 100 100" enable-background="new 0 0 100 100" xml:space="preserve"><path d="M63.759,51.49L48.508,36.24L25.221,59.527l15.25,15.25L63.759,51.49z M32.84,62.989c-0.384,0-0.768-0.146-1.061-0.439  c-0.586-0.586-0.586-1.536,0-2.121l15.297-15.296c0.586-0.586,1.535-0.586,2.121,0s0.586,1.536,0,2.121L33.9,62.55  C33.607,62.843,33.224,62.989,32.84,62.989z M38.51,68.658c-0.384,0-0.768-0.146-1.061-0.439c-0.586-0.585-0.586-1.536,0-2.121  l9.981-9.981c0.586-0.586,1.535-0.586,2.121,0c0.586,0.585,0.586,1.536,0,2.121l-9.981,9.981  C39.277,68.512,38.894,68.658,38.51,68.658z M89.032,32.898c-1.575,1.575-4.13,1.575-5.704-0.001c-1.575-1.574-1.575-4.128,0-5.702  l-2.411-2.41c-1.573,1.574-4.127,1.574-5.702-0.001c-1.575-1.574-1.575-4.128,0-5.703l-2.41-2.409  c-1.574,1.574-4.129,1.574-5.704-0.001c-1.574-1.575-1.574-4.128,0-5.703L63.481,7.35L49.505,21.327l29.168,29.168L92.65,36.517  L89.032,32.898z M7.35,63.482l3.619,3.618c1.574-1.574,4.128-1.574,5.703,0c1.574,1.575,1.574,4.129,0,5.703l2.409,2.41  c1.576-1.574,4.129-1.574,5.704,0.001c1.575,1.574,1.575,4.128,0,5.703l2.409,2.409c1.576-1.574,4.13-1.574,5.704,0.001  s1.574,4.128,0,5.703l3.619,3.619l40.034-40.035L47.384,23.448L7.35,63.482z M49.568,33.059L66.94,50.43  c0.281,0.281,0.439,0.663,0.439,1.061s-0.158,0.779-0.439,1.061L41.531,77.96c-0.281,0.281-0.663,0.439-1.061,0.439  s-0.779-0.158-1.061-0.439L22.039,60.588c-0.586-0.586-0.586-1.536,0-2.121l25.408-25.408  C48.033,32.473,48.982,32.473,49.568,33.059z"></path></svg>